<svg width="446" height="134" viewBox="0 0 446 134" fill="none" xmlns="http://www.w3.org/2000/svg">
<path d="M182.413 112.55C173.113 112.55 165.751 109.794 160.326 104.283C154.901 98.772 152.188 91.28 152.188 81.808L164.33 82.325C164.33 88.094 166.009 92.787 169.367 96.404C172.726 100.021 177.074 101.829 182.413 101.829C188.269 101.829 192.919 99.719 196.363 95.5C199.894 91.28 201.659 85.64 201.659 78.579C201.659 74.015 200.841 70.054 199.205 66.696C197.569 63.251 195.287 60.582 192.359 58.687C189.431 56.793 185.987 55.846 182.026 55.846C176.773 55.846 172.51 57.525 169.238 60.883C165.966 64.241 164.33 68.633 164.33 74.058L161.359 62.175C163.512 56.664 166.655 52.401 170.788 49.387C175.008 46.373 179.959 44.866 185.643 44.866C191.154 44.866 196.105 46.244 200.497 49C204.888 51.669 208.333 55.501 210.83 60.496C213.327 65.49 214.576 71.389 214.576 78.191C214.576 84.908 213.284 90.85 210.701 96.017C208.204 101.183 204.544 105.231 199.722 108.158C194.986 111.086 189.216 112.55 182.413 112.55ZM164.33 87.492L152.188 81.808V17.999H164.33V87.492ZM256.727 112.55C246.307 112.55 238.213 109.708 232.443 104.025C226.674 98.255 223.789 90.247 223.789 80C223.789 72.939 225.167 66.782 227.923 61.529C230.678 56.276 234.467 52.186 239.289 49.258C244.198 46.33 249.838 44.866 256.21 44.866C261.549 44.866 266.113 45.814 269.902 47.708C273.777 49.602 276.705 52.143 278.685 55.329C280.752 58.515 281.785 62.003 281.785 65.791C281.785 69.408 280.881 72.465 279.073 74.962C277.265 77.373 274.724 79.268 271.452 80.646C268.18 82.023 264.391 82.928 260.085 83.358C255.866 83.703 251.345 83.617 246.523 83.1C241.7 82.583 236.749 81.679 231.668 80.387V72.25C236.491 73.455 241.141 74.273 245.619 74.704C250.096 75.048 254.101 75.005 257.631 74.575C261.248 74.058 264.09 73.025 266.156 71.475C268.309 69.925 269.385 67.772 269.385 65.016C269.385 62.175 268.223 59.721 265.898 57.654C263.659 55.501 260.387 54.425 256.081 54.425C252.292 54.425 248.891 55.415 245.877 57.396C242.949 59.29 240.624 62.089 238.902 65.791C237.18 69.494 236.319 73.972 236.319 79.225C236.319 84.305 237.137 88.568 238.773 92.012C240.409 95.457 242.82 98.083 246.006 99.892C249.192 101.7 253.239 102.604 258.148 102.604C261.764 102.604 265.424 102.131 269.127 101.183C272.83 100.236 276.49 98.815 280.106 96.921V106.35C277.351 107.986 274.035 109.45 270.16 110.742C266.285 111.947 261.808 112.55 256.727 112.55ZM305.738 17.999V93.046C305.738 96.318 306.212 98.557 307.159 99.762C308.192 100.968 309.828 101.571 312.067 101.571C313.014 101.571 313.919 101.485 314.78 101.312C315.727 101.14 316.674 100.882 317.621 100.537V110.483C314.694 111.861 311.594 112.55 308.321 112.55C302.982 112.55 299.193 110.957 296.955 107.771C294.716 104.499 293.596 100.236 293.596 94.983V17.999H305.738ZM327.215 111V46.287C331.262 47.062 335.31 47.062 339.357 46.287V111H327.215ZM333.286 35.179C330.703 35.179 328.722 34.49 327.344 33.112C326.053 31.648 325.407 29.883 325.407 27.816C325.407 25.75 326.053 24.027 327.344 22.65C328.722 21.186 330.703 20.454 333.286 20.454C335.869 20.454 337.807 21.186 339.098 22.65C340.39 24.027 341.036 25.75 341.036 27.816C341.036 29.883 340.39 31.648 339.098 33.112C337.807 34.49 335.869 35.179 333.286 35.179ZM349.17 46.416H362.733L381.721 74.058H377.071L395.929 46.416H409.492L384.046 83.746L384.175 74.187L409.492 111H395.929L377.329 84.004H381.204L362.604 111H349.17L374.358 74.187L374.746 83.746L349.17 46.416Z" fill="black"/>
<path d="M86.015 18.396L27 121.097C27 121.097 56.041 79.854 88.798 79.854C121.555 79.854 150.596 121.097 150.596 121.097L91.582 18.396C90.347 16.248 87.249 16.248 86.015 18.396Z" fill="black"/>
</svg>
