<svg width="447" height="146" viewBox="0 0 447 146" fill="none" xmlns="http://www.w3.org/2000/svg">
<path d="M185.413 112.55C176.113 112.55 168.751 109.794 163.326 104.283C157.901 98.772 155.188 91.28 155.188 81.808L167.33 82.325C167.33 88.094 169.009 92.787 172.367 96.404C175.726 100.021 180.074 101.829 185.413 101.829C191.269 101.829 195.919 99.719 199.363 95.5C202.894 91.28 204.659 85.64 204.659 78.579C204.659 74.015 203.841 70.054 202.205 66.696C200.569 63.251 198.287 60.582 195.359 58.687C192.431 56.793 188.987 55.846 185.026 55.846C179.773 55.846 175.51 57.525 172.238 60.883C168.966 64.241 167.33 68.633 167.33 74.058L164.359 62.175C166.512 56.664 169.655 52.401 173.788 49.387C178.008 46.373 182.959 44.866 188.643 44.866C194.154 44.866 199.105 46.244 203.497 49C207.888 51.669 211.333 55.501 213.83 60.496C216.327 65.49 217.576 71.389 217.576 78.191C217.576 84.908 216.284 90.85 213.701 96.017C211.204 101.183 207.544 105.231 202.722 108.158C197.986 111.086 192.216 112.55 185.413 112.55ZM167.33 87.492L155.188 81.808V17.999H167.33V87.492ZM259.727 112.55C249.307 112.55 241.213 109.708 235.443 104.025C229.674 98.255 226.789 90.247 226.789 80C226.789 72.939 228.167 66.782 230.923 61.529C233.678 56.276 237.467 52.186 242.289 49.258C247.198 46.33 252.838 44.866 259.21 44.866C264.549 44.866 269.113 45.814 272.902 47.708C276.777 49.602 279.705 52.143 281.685 55.329C283.752 58.515 284.785 62.003 284.785 65.791C284.785 69.408 283.881 72.465 282.073 74.962C280.265 77.373 277.724 79.268 274.452 80.646C271.18 82.023 267.391 82.928 263.085 83.358C258.866 83.703 254.345 83.617 249.523 83.1C244.7 82.583 239.749 81.679 234.668 80.387V72.25C239.491 73.455 244.141 74.273 248.619 74.704C253.096 75.048 257.101 75.005 260.631 74.575C264.248 74.058 267.09 73.025 269.156 71.475C271.309 69.925 272.385 67.772 272.385 65.016C272.385 62.175 271.223 59.721 268.898 57.654C266.659 55.501 263.387 54.425 259.081 54.425C255.292 54.425 251.891 55.415 248.877 57.396C245.949 59.29 243.624 62.089 241.902 65.791C240.18 69.494 239.319 73.972 239.319 79.225C239.319 84.305 240.137 88.568 241.773 92.012C243.409 95.457 245.82 98.083 249.006 99.892C252.192 101.7 256.239 102.604 261.148 102.604C264.764 102.604 268.424 102.131 272.127 101.183C275.83 100.236 279.49 98.815 283.106 96.921V106.35C280.351 107.986 277.035 109.45 273.16 110.742C269.285 111.947 264.808 112.55 259.727 112.55ZM308.738 17.999V93.046C308.738 96.318 309.212 98.557 310.159 99.762C311.192 100.968 312.828 101.571 315.067 101.571C316.014 101.571 316.919 101.485 317.78 101.312C318.727 101.14 319.674 100.882 320.621 100.537V110.483C317.694 111.861 314.594 112.55 311.321 112.55C305.982 112.55 302.193 110.957 299.955 107.771C297.716 104.499 296.596 100.236 296.596 94.983V17.999H308.738ZM330.215 111V46.287C334.262 47.062 338.31 47.062 342.357 46.287V111H330.215ZM336.286 35.179C333.703 35.179 331.722 34.49 330.344 33.112C329.053 31.648 328.407 29.883 328.407 27.816C328.407 25.75 329.053 24.027 330.344 22.65C331.722 21.186 333.703 20.454 336.286 20.454C338.869 20.454 340.807 21.186 342.098 22.65C343.39 24.027 344.036 25.75 344.036 27.816C344.036 29.883 343.39 31.648 342.098 33.112C340.807 34.49 338.869 35.179 336.286 35.179ZM352.17 46.416H365.733L384.721 74.058H380.071L398.929 46.416H412.492L387.046 83.746L387.175 74.187L412.492 111H398.929L380.329 84.004H384.204L365.604 111H352.17L377.358 74.187L377.746 83.746L352.17 46.416Z" fill="white"/>
<path d="M89.015 18.396L30 121.097C30 121.097 59.041 79.854 91.798 79.854C124.555 79.854 153.596 121.097 153.596 121.097L94.582 18.396C93.347 16.248 90.249 16.248 89.015 18.396Z" fill="white"/>
</svg>
